<?xml version="1.0" standalone="no"?>
<!DOCTYPE svg PUBLIC "-//W3C//DTD SVG 20010904//EN"
 "http://www.w3.org/TR/2001/REC-SVG-20010904/DTD/svg10.dtd">
<svg version="1.0" xmlns="http://www.w3.org/2000/svg"
 width="800.000000pt" height="800.000000pt" viewBox="0 0 800.000000 800.000000"
 preserveAspectRatio="xMidYMid meet">
<metadata>
Created by potrace 1.11, written by Peter Selinger 2001-2013
</metadata>
<g transform="translate(0.000000,800.000000) scale(0.100000,-0.100000)"
fill="#000000" stroke="none">
<path d="M1260 4255 c0 -2147 2 -2495 14 -2488 8 4 57 46 110 93 l95 85 1 649
0 649 41 -59 c55 -79 86 -111 135 -140 38 -22 49 -24 140 -20 180 9 342 86
577 277 115 93 277 249 277 266 0 7 6 13 13 13 23 0 140 127 134 144 -4 11 -1
16 12 16 22 0 69 51 63 68 -2 7 1 11 6 10 16 -5 120 122 139 170 10 23 23 41
28 39 6 -2 18 5 28 15 9 10 14 18 11 18 -3 0 19 28 51 61 34 38 54 67 51 76
-4 9 1 17 13 20 28 7 71 76 65 104 -4 20 -3 21 4 5 10 -23 25 -6 16 18 -4 11
0 16 15 16 14 0 19 5 15 15 -4 9 0 15 9 15 8 0 31 26 52 58 21 31 50 73 66 92
18 24 26 43 22 60 -3 17 2 29 15 37 17 10 25 5 66 -36 l47 -48 0 -158 0 -158
-65 -66 -65 -66 -3 -83 c-2 -45 -1 -82 2 -82 3 0 34 28 68 63 l62 63 0 77 c0
42 4 77 8 77 8 0 102 -92 102 -101 0 -2 -34 -39 -76 -82 -41 -42 -72 -81 -69
-87 4 -6 3 -9 -2 -8 -12 4 -60 -47 -55 -60 2 -7 -9 -17 -25 -24 -15 -7 -30
-16 -33 -20 -26 -35 -75 -88 -82 -88 -4 0 -8 19 -8 42 l0 43 -110 -110 -110
-109 30 -31 29 -30 -60 -70 c-143 -165 -147 -184 -69 -388 64 -167 89 -207
131 -207 50 0 379 148 379 170 0 6 9 10 19 10 21 0 37 17 27 27 -4 4 -12 1
-18 -5 -14 -14 -28 -16 -28 -4 0 5 17 14 39 20 21 7 44 19 51 27 7 8 17 15 22
15 6 0 5 -7 -2 -15 -17 -21 -4 -19 40 6 21 12 36 27 34 34 -3 7 9 18 26 25 17
7 55 28 85 46 l55 33 0 -34 0 -33 70 72 70 71 0 -83 c0 -53 -4 -81 -10 -77 -7
4 -10 -100 -10 -306 l0 -311 23 6 c12 3 25 6 30 6 4 0 7 64 7 143 0 78 5 149
10 157 8 12 35 -11 140 -115 114 -114 134 -129 159 -127 60 7 100 -32 101 -95
0 -23 5 -45 11 -49 6 -3 30 12 52 33 23 22 64 55 91 73 l48 32 -51 52 -51 52
80 79 80 80 -80 80 -80 80 80 80 80 79 218 -217 218 -217 -33 -32 c-18 -17
-31 -33 -30 -35 5 -4 178 65 193 78 25 20 278 364 309 419 8 13 7 13 -8 1 -16
-13 -17 0 -17 188 0 110 -3 201 -8 201 -4 0 -49 -43 -100 -95 -52 -52 -96 -95
-98 -95 -3 0 -3 90 -2 200 2 110 1 200 -2 200 -2 0 -49 -44 -102 -97 l-98 -98
0 110 0 110 158 64 c86 36 186 77 221 93 35 16 122 53 195 82 478 195 583 246
613 297 10 16 23 27 29 25 6 -2 23 8 38 23 26 27 35 48 16 36 -5 -3 -10 -4
-10 -1 0 6 55 36 66 36 3 0 3 -8 -1 -17 -3 -10 -5 -62 -4 -115 4 -161 1 -507
-6 -595 -4 -57 -3 -83 4 -83 7 0 11 -32 11 -90 0 -49 -3 -90 -7 -90 -4 0 -30
22 -58 50 l-50 49 3 -219 c1 -121 -1 -220 -5 -220 -4 0 -49 42 -100 92 l-93
93 0 -160 c0 -88 3 -204 7 -257 l6 -97 36 28 c20 16 74 53 121 83 47 31 94 65
104 77 22 24 36 27 36 7 0 -8 15 -17 34 -20 40 -8 91 -66 83 -97 -4 -14 0 -19
14 -19 11 0 33 -7 49 -15 l30 -16 0 1941 0 1940 -2745 0 -2745 0 0 -2495z
m5279 1363 c0 -502 -3 -921 -5 -931 -3 -9 -10 -15 -15 -11 -6 3 -16 0 -24 -6
-8 -7 -15 -10 -15 -7 0 3 -31 -7 -70 -23 -53 -22 -70 -25 -70 -15 0 8 9 19 21
25 11 7 19 13 17 16 -5 5 -138 -45 -553 -208 -260 -102 -554 -216 -602 -235
-10 -4 -13 22 -13 112 l0 118 -107 109 -107 108 64 63 65 62 -60 -63 -60 -62
98 -98 97 -97 0 142 c0 78 3 150 7 160 4 12 -6 7 -28 -14 -19 -18 -37 -33 -39
-33 -3 0 -4 37 -2 81 4 80 3 82 -30 118 l-33 36 35 -32 36 -33 47 48 c44 45
46 49 30 65 -16 16 -19 15 -50 -15 l-33 -32 0 65 c0 61 -2 67 -34 98 l-34 33
101 125 c56 68 127 157 157 197 31 40 74 94 98 121 52 59 94 132 117 204 14
44 17 74 12 153 -11 175 -55 228 -177 214 -62 -7 -290 -82 -483 -158 l-129
-51 -144 144 -144 144 0 -210 0 -209 -45 44 -45 44 0 -61 0 -61 -187 -80
c-262 -111 -233 -110 -233 -7 l0 86 -31 -36 c-17 -19 -34 -35 -38 -35 -4 0
-15 39 -24 87 -30 157 -128 323 -204 347 -12 4 -21 16 -22 29 -7 112 -8 115
-38 150 -17 20 -34 45 -38 56 -3 11 -26 30 -51 42 -45 21 -46 21 -87 3 -23
-11 -79 -43 -125 -71 -46 -29 -90 -53 -97 -53 -8 0 -35 -25 -61 -55 -25 -30
-70 -72 -98 -92 -67 -49 -336 -302 -336 -317 0 -6 -32 -43 -70 -81 -46 -46
-69 -76 -66 -87 2 -11 -12 -35 -35 -60 -21 -24 -38 -38 -39 -32 0 6 7 17 15
24 8 7 15 17 15 23 0 19 -43 -30 -45 -50 -1 -24 -14 -45 -24 -39 -9 6 -117
-101 -109 -109 3 -3 24 15 47 40 22 24 41 41 41 37 0 -5 -15 -23 -34 -41 -69
-67 -416 -515 -416 -537 0 -7 -4 -14 -9 -16 -19 -7 -172 -232 -256 -377 -49
-84 -91 -147 -95 -141 -4 7 -14 1 -25 -16 -13 -21 -14 -28 -4 -34 9 -6 3 -26
-26 -81 -21 -40 -53 -107 -71 -148 l-33 -76 -1 1067 0 1067 49 -52 50 -52 3
168 c2 92 0 167 -3 167 -4 0 -21 -16 -38 -35 -24 -27 -31 -45 -31 -76 0 -28
-4 -39 -12 -37 -9 3 -14 41 -16 131 l-3 127 2531 0 2530 0 -1 -912z m-3059
802 c0 -5 -5 -10 -11 -10 -5 0 -7 5 -4 10 3 6 8 10 11 10 2 0 4 -4 4 -10z
m-138 -52 c-15 -18 -72 -51 -72 -41 0 4 17 18 38 30 43 26 48 27 34 11z m-96
-63 c-11 -8 -22 -12 -25 -9 -6 6 19 24 34 24 6 -1 1 -7 -9 -15z m1511 -341
c-2 -1 -118 -51 -234 -101 l-33 -13 0 192 0 193 135 -135 c74 -74 133 -135
132 -136z m-1049 -78 c22 -22 5 -104 -58 -280 l-51 -141 -65 -35 c-95 -51
-100 -58 -80 -119 9 -27 16 -59 16 -69 0 -40 -329 -547 -485 -747 -334 -429
-694 -801 -910 -943 -55 -36 -109 -73 -120 -82 -11 -10 -64 -34 -118 -54 -173
-65 -238 -70 -256 -23 -9 22 16 169 49 286 81 299 357 778 705 1226 266 342
700 806 859 920 64 45 106 63 106 46 0 -5 -8 -12 -18 -15 -21 -7 -90 -56 -79
-56 4 0 38 15 76 34 42 21 72 31 77 26 12 -12 84 7 84 22 0 7 5 7 14 -1 10 -9
16 -9 21 -1 4 6 12 9 18 7 7 -2 17 2 24 9 8 7 27 10 51 7 22 -3 42 -1 46 5 8
13 74 -2 94 -22z m1364 -208 c-23 -29 -55 -69 -71 -88 l-30 -35 -1 71 0 70 68
20 c37 11 69 19 71 17 2 -1 -15 -26 -37 -55z m-172 -207 c-6 -9 -31 -40 -57
-69 l-48 -52 3 121 3 122 54 -53 c42 -41 52 -57 45 -69z m-510 -104 l0 -72
-265 -265 -265 -265 0 110 0 110 -51 -52 c-28 -29 -52 -53 -55 -53 -2 0 -4 45
-4 101 0 64 -4 98 -10 94 -17 -10 -11 14 8 31 9 9 43 32 75 51 31 19 57 40 57
47 0 7 19 21 43 30 54 20 61 20 52 -1 -4 -12 5 -7 24 11 25 24 358 194 384
196 4 0 7 -33 7 -73z m645 -357 c21 -22 37 -40 34 -40 -3 0 -23 18 -44 40 -21
22 -37 40 -34 40 3 0 23 -18 44 -40z m155 -264 c0 -2 -8 -10 -17 -17 -16 -13
-17 -12 -4 4 13 16 21 21 21 13z m-650 -360 l0 -31 -47 47 c-40 40 -45 49 -33
63 12 14 17 13 47 -17 23 -22 33 -41 33 -62z m0 -123 c0 -13 -2 -23 -4 -23 -2
0 -35 33 -74 72 -55 56 -68 76 -60 86 16 18 138 -102 138 -135z m0 -128 c0
-28 -5 -25 -105 75 -58 58 -105 110 -105 116 0 33 33 13 118 -69 75 -75 92
-97 92 -122z m-109 14 c84 -85 109 -116 109 -137 0 -24 -12 -14 -115 88 -79
79 -115 122 -115 137 0 13 3 23 6 23 3 0 54 -50 115 -111z m-7 -118 c80 -81
95 -99 80 -105 -13 -5 -39 14 -106 81 -76 76 -107 123 -80 123 4 0 52 -44 106
-99z m-47 -73 c29 -29 53 -55 53 -59 0 -4 -8 -10 -17 -13 -23 -9 -103 70 -103
101 0 13 3 23 7 23 4 0 31 -23 60 -52z m-537 -278 l0 -58 -106 -52 c-58 -28
-108 -50 -109 -48 -7 7 198 227 206 222 5 -3 9 -31 9 -64z m2700 -515 c0 -58
-4 -105 -8 -105 -4 0 -30 22 -57 50 l-49 49 50 55 c27 29 52 54 57 55 4 1 7
-46 7 -104z m-1370 -24 l0 -35 -30 29 c-22 21 -30 38 -30 64 l0 35 30 -29 c22
-21 30 -38 30 -64z m-1430 30 c0 -5 -7 -12 -16 -15 -14 -5 -15 -4 -4 9 14 17
20 19 20 6z m1430 -128 c0 -40 -4 -41 -35 -5 -16 17 -24 40 -25 61 l0 35 30
-29 c22 -21 30 -38 30 -62z m0 -100 c0 -39 -6 -41 -37 -11 -17 15 -23 33 -23
62 l0 40 30 -29 c22 -21 30 -38 30 -62z"/>
<path d="M2333 5788 c-40 -41 -43 -48 -43 -98 l0 -55 46 46 c43 44 45 47 42
98 l-3 52 -42 -43z m3 -87 l-36 -36 0 40 c0 31 7 46 33 73 l32 33 3 -37 c3
-32 -2 -43 -32 -73z"/>
<path d="M5246 4831 c-14 -15 -14 -20 -2 -30 11 -9 14 -6 18 19 5 35 6 35 -16
11z"/>
<path d="M6475 4410 l-39 -40 42 -43 42 -42 0 83 c0 45 -1 82 -3 82 -2 0 -21
-18 -42 -40z"/>
<path d="M5480 3903 l-65 -68 68 65 c37 35 67 66 67 67 0 8 -10 -2 -70 -64z"/>
<path d="M5830 3719 c0 -18 2 -19 15 -9 15 12 12 30 -6 30 -5 0 -9 -10 -9 -21z"/>
<path d="M5860 3685 c-13 -14 -25 -35 -27 -47 -3 -20 0 -19 32 12 20 19 31 36
25 38 -5 2 -8 8 -4 13 10 17 -2 9 -26 -16z m20 2 c0 -2 -10 -12 -22 -23 l-23
-19 19 23 c18 21 26 27 26 19z"/>
<path d="M5870 3613 l-55 -58 58 55 c53 50 62 60 54 60 -1 0 -27 -26 -57 -57z"/>
<path d="M5807 3392 c-22 -24 -21 -32 3 -32 15 0 20 7 20 25 0 30 -2 30 -23 7z"/>
<path d="M5856 3328 c10 -14 21 -24 23 -22 3 3 -6 15 -18 27 l-24 22 19 -27z"/>
<path d="M5711 3263 c-94 -150 -127 -198 -199 -292 -40 -53 -79 -105 -87 -116
-68 -91 -67 -90 -220 -146 -44 -16 -88 -33 -97 -39 -23 -13 -35 -13 -21 1 19
19 -5 66 -41 83 -41 20 -95 8 -150 -33 -23 -17 -81 -55 -131 -85 -49 -30 -121
-82 -160 -115 -38 -33 -75 -60 -82 -61 -7 0 -24 -16 -39 -35 -14 -19 -32 -35
-39 -35 -13 0 -115 -107 -108 -114 3 -2 0 -14 -7 -25 -9 -18 -6 -25 22 -51 18
-17 52 -38 76 -47 41 -15 47 -15 100 2 79 24 203 93 264 146 l50 43 -31 9
c-29 7 -84 -5 -146 -32 -80 -36 -199 -81 -203 -77 -8 9 59 86 114 131 49 39
56 42 82 33 68 -26 187 37 350 184 l33 29 20 -25 c24 -31 73 -35 119 -11 17 9
30 13 30 10 0 -6 -89 -116 -185 -230 -80 -95 -77 -89 -64 -119 30 -65 88 -20
288 224 197 239 184 227 340 308 122 64 171 99 171 123 0 8 -59 5 -85 -5 -11
-4 -39 -16 -62 -27 -24 -10 -43 -17 -43 -14 0 2 35 53 78 112 102 140 192 286
192 310 0 23 -25 48 -57 57 -20 6 -29 -2 -72 -71z m-756 -623 c-21 -23 -146
-110 -192 -134 -30 -15 -33 -15 -33 -1 0 32 107 112 188 141 51 18 58 17 37
-6z"/>
<path d="M5881 3274 c0 -11 3 -14 6 -6 3 7 2 16 -1 19 -3 4 -6 -2 -5 -13z"/>
<path d="M5815 3153 c-33 -52 -79 -121 -102 -153 -44 -61 -52 -76 -32 -64 18
11 89 6 105 -7 35 -29 -6 -86 -98 -134 -26 -14 -50 -30 -54 -36 -9 -15 -3 -13
104 50 l92 53 0 149 c0 145 1 151 26 189 15 22 25 42 23 44 -2 2 -31 -39 -64
-91z"/>
<path d="M6519 2976 c-87 -31 -319 -196 -319 -227 0 -19 65 -77 94 -85 17 -4
45 1 79 14 97 37 94 37 77 20 -14 -14 -116 -85 -293 -205 -122 -82 -138 -115
-64 -129 36 -6 55 5 290 163 367 247 386 265 333 318 -33 33 -64 32 -178 -5
-51 -16 -94 -28 -96 -26 -3 4 61 43 153 94 17 9 32 18 35 20 6 4 -58 62 -68
62 -4 -1 -23 -7 -43 -14z"/>
<path d="M4890 2871 c0 -94 2 -103 18 -96 54 21 113 28 138 16 15 -6 28 -10
30 -8 2 2 -39 45 -91 97 l-95 95 0 -104z"/>
<path d="M6179 2933 l-34 -38 38 34 c34 33 42 41 34 41 -2 0 -19 -17 -38 -37z"/>
<path d="M6005 2921 c28 -4 57 -10 65 -14 8 -5 6 -1 -4 7 -13 10 -37 15 -65
15 l-46 -2 50 -6z"/>
<path d="M2981 2855 c-23 -36 -46 -63 -52 -60 -24 15 -331 -76 -604 -179 -58
-22 -95 -31 -105 -26 -11 6 -30 -1 -59 -20 -23 -16 -72 -39 -109 -51 -101 -33
-113 -50 -67 -93 l24 -23 -107 -104 c-175 -170 -404 -382 -587 -542 l-40 -36
30 -31 c59 -63 44 -65 315 57 271 123 308 141 467 219 159 79 211 117 193 139
-12 15 -33 13 -110 -8 -50 -14 -105 -36 -310 -122 -36 -15 -76 -32 -90 -37
-14 -6 -51 -23 -82 -40 -32 -16 -58 -26 -58 -22 0 16 245 239 274 250 70 27
416 181 429 193 9 6 65 34 125 60 122 54 172 85 172 107 0 14 -30 14 -96 0
-21 -4 -340 -127 -416 -160 -21 -9 -38 -13 -38 -9 0 4 35 42 79 84 85 84 81
82 316 170 88 33 167 66 175 73 8 7 24 16 35 19 11 3 68 25 128 51 59 25 107
43 107 40 0 -12 -231 -324 -285 -385 -14 -16 -58 -40 -107 -58 -166 -63 -219
-85 -225 -94 -3 -5 8 -22 23 -39 30 -30 58 -33 123 -13 21 7 22 6 13 -11 -6
-10 -23 -32 -38 -48 -39 -42 -194 -228 -204 -247 -22 -39 49 -78 86 -46 20 17
214 242 311 362 l81 100 134 69 c132 68 171 95 189 128 8 15 4 16 -33 12 -24
-3 -69 -16 -100 -28 -32 -13 -55 -18 -51 -12 4 6 38 52 75 103 96 130 188 280
188 308 0 24 -41 65 -65 65 -7 0 -32 -29 -54 -65z"/>
<path d="M5860 2890 c-8 -5 -10 -10 -5 -10 6 0 17 5 25 10 8 5 11 10 5 10 -5
0 -17 -5 -25 -10z"/>
<path d="M6095 2889 c7 -10 55 -18 55 -9 0 4 -13 10 -29 12 -17 2 -28 1 -26
-3z"/>
<path d="M5950 2874 c-182 -49 -505 -291 -572 -428 -26 -55 -22 -66 41 -111
71 -50 124 -38 278 66 75 51 90 58 76 37 -4 -7 -13 -28 -19 -45 -11 -31 -10
-35 23 -63 18 -16 37 -30 41 -30 5 0 15 15 24 33 16 33 196 259 268 337 92 98
92 98 75 131 -17 33 -59 48 -87 30 -14 -9 -18 -8 -18 3 0 15 -51 57 -67 55 -4
0 -33 -7 -63 -15z m120 -68 c0 -2 -30 -27 -67 -55 -38 -28 -72 -54 -78 -59
-115 -90 -186 -141 -212 -151 -17 -7 -39 -22 -49 -32 -23 -25 -174 -101 -174
-87 0 20 144 158 229 218 90 65 218 134 286 156 41 13 65 17 65 10z"/>
<path d="M5721 2603 c-50 -36 -89 -68 -87 -71 3 -2 20 7 38 20 18 14 53 36 78
50 47 27 91 68 73 68 -6 0 -52 -30 -102 -67z"/>
<path d="M6720 2725 c-7 -8 -50 -40 -96 -72 -79 -53 -84 -59 -84 -92 0 -30
-10 -45 -67 -103 l-67 -68 67 -68 67 -68 0 -392 0 -392 -405 0 c-223 0 -405 4
-405 8 0 4 20 28 45 52 l45 44 0 348 c0 275 -3 348 -13 348 -19 0 -85 57 -92
80 -6 19 -8 18 -46 -7 l-39 -26 0 -423 0 -424 -2020 0 c-1111 0 -2020 1 -2020
3 0 2 70 73 155 157 150 149 155 155 137 172 -18 18 -24 16 -203 -66 l-184
-84 -6 -93 -5 -94 -2 92 -2 91 -52 -20 c-62 -23 -87 -18 -133 27 l-35 36 0
-221 0 -220 2745 0 2745 0 0 745 c0 421 -4 745 -9 745 -5 0 -14 -7 -21 -15z"/>
<path d="M5484 2681 c-17 -10 -49 -41 -72 -67 -22 -27 -77 -93 -121 -146 l-81
-97 0 -308 0 -308 157 157 158 158 -48 48 c-46 46 -47 50 -47 108 0 59 -1 61
-42 90 -65 46 -74 69 -48 126 11 26 36 68 55 93 19 25 35 51 35 57 0 7 21 34
47 60 52 53 53 57 7 29z"/>
<path d="M6061 2565 c-132 -159 -131 -130 -13 -248 l102 -102 0 63 c0 58 -1
62 -19 53 -27 -15 -86 4 -110 35 -19 24 -19 28 -5 55 8 17 40 46 70 65 30 19
57 41 60 48 3 7 4 40 2 72 l-3 59 -84 -100z"/>
<path d="M4340 2558 c-36 -33 -96 -85 -135 -115 -38 -29 -106 -83 -150 -119
-89 -72 -122 -94 -110 -72 13 21 140 171 169 197 33 31 34 74 4 95 -12 9 -26
16 -30 16 -17 0 -95 -80 -188 -191 -178 -213 -177 -211 -124 -269 67 -74 84
-73 190 10 l63 50 17 -35 c16 -34 57 -75 75 -75 5 0 9 15 9 33 0 24 14 54 49
103 49 71 187 228 260 299 49 46 56 93 19 119 -35 25 -48 19 -118 -46z"/>
<path d="M4980 2525 l-55 -45 -5 -99 c-3 -55 -4 -99 -4 -98 19 26 154 191 175
214 l29 33 -25 6 c-13 3 -29 12 -36 20 -16 20 -18 19 -79 -31z"/>
<path d="M3719 2511 c-61 -46 -65 -47 -88 -33 -27 18 -78 8 -169 -33 -157 -72
-432 -361 -432 -453 0 -11 17 -31 41 -48 51 -35 99 -37 134 -4 45 42 26 9 -33
-59 -71 -81 -212 -256 -235 -293 -16 -26 -16 -27 13 -48 16 -11 43 -26 60 -32
31 -10 32 -10 169 128 75 77 181 180 235 229 61 56 106 105 117 130 19 42 18
52 -3 39 -7 -5 -19 -9 -25 -10 -19 -3 -112 -71 -160 -118 -82 -78 -42 -23 88
120 72 80 200 214 285 299 85 85 154 161 154 170 0 22 -45 65 -68 65 -10 0
-48 -22 -83 -49z m-155 -175 c-45 -53 -330 -316 -343 -316 -4 0 -16 9 -26 20
-17 19 -16 21 13 67 45 69 188 189 295 246 40 21 88 36 96 31 2 -2 -14 -23
-35 -48z"/>
<path d="M2968 2378 c-25 -29 -62 -77 -82 -105 -21 -29 -41 -53 -45 -53 -4 0
-14 -12 -22 -27 -7 -16 -43 -62 -80 -103 -36 -41 -78 -93 -93 -114 -32 -48
-35 -101 -6 -109 24 -6 34 2 111 93 34 41 124 140 198 220 172 183 165 174
151 199 -10 20 -58 51 -78 51 -5 0 -30 -24 -54 -52z"/>
<path d="M4623 2373 c-7 -2 -13 -11 -13 -20 0 -10 6 -12 23 -7 28 8 30 10 22
23 -7 12 -13 12 -32 4z"/>
<path d="M4918 2174 l4 -66 39 38 40 39 -30 8 c-16 4 -33 16 -36 27 -13 39
-20 19 -17 -46z"/>
<path d="M4663 2178 c-43 -24 -53 -35 -53 -56 0 -25 3 -24 55 28 73 72 73 72
-2 28z"/>
<path d="M1490 2082 c0 -62 4 -112 8 -112 4 0 31 24 60 53 l52 53 -60 59 -60
59 0 -112z"/>
<path d="M2022 2142 l-33 -18 23 -21 c32 -29 68 -16 68 27 0 34 -11 37 -58 12z"/>
<path d="M6013 1898 c-37 -39 -42 -49 -45 -101 -1 -31 -1 -57 2 -56 3 1 24 23
48 49 41 45 43 51 40 100 l-3 51 -42 -43z"/>
<path d="M3412 1668 l3 -83 34 -3 c18 -2 38 1 44 7 8 8 0 11 -26 11 l-37 0 0
75 c0 45 -4 75 -10 75 -7 0 -10 -30 -8 -82z"/>
<path d="M3572 1676 c-12 -41 -22 -79 -22 -85 0 -21 19 -11 22 12 2 17 11 23
34 25 27 3 33 -1 38 -22 3 -15 11 -26 17 -26 6 0 9 8 6 18 -2 9 -13 47 -23 85
-25 93 -44 91 -72 -7z m53 7 c6 -29 4 -33 -14 -33 -23 0 -24 3 -15 49 8 37 19
30 29 -16z"/>
<path d="M3740 1666 l0 -86 39 0 c47 0 66 19 55 57 -4 16 -8 46 -8 68 -1 40
-1 40 -43 43 l-43 3 0 -85z m70 39 c0 -21 -5 -25 -30 -25 -29 0 -32 8 -21 48
1 1 12 2 26 2 20 0 25 -5 25 -25z m-1 -59 c18 -22 2 -48 -28 -44 -23 3 -30 18
-22 53 2 11 39 4 50 -9z"/>
<path d="M3914 1737 c-3 -8 -4 -45 -2 -83 l3 -69 43 -3 c25 -2 42 1 42 7 0 6
-16 11 -35 11 -32 0 -35 2 -35 30 0 27 3 30 30 30 17 0 30 5 30 10 0 6 -13 10
-30 10 -25 0 -30 4 -30 25 0 22 4 25 35 25 19 0 35 5 35 10 0 15 -80 12 -86
-3z"/>
<path d="M4072 1668 l3 -83 43 -3 c25 -2 42 1 42 7 0 6 -16 11 -35 11 l-35 0
0 75 c0 45 -4 75 -10 75 -7 0 -10 -30 -8 -82z"/>
<path d="M4304 1736 c-11 -30 1 -61 31 -76 17 -8 33 -19 37 -24 13 -19 -5 -36
-38 -36 -19 0 -34 -4 -34 -10 0 -5 18 -10 40 -10 70 0 80 68 14 96 -48 20 -48
54 1 54 19 0 35 5 35 10 0 16 -80 12 -86 -4z"/>
<path d="M4476 1728 c-9 -12 -16 -41 -16 -63 0 -53 23 -85 59 -85 40 0 56 24
56 85 0 29 -6 59 -14 68 -20 25 -67 21 -85 -5z m75 -25 c15 -38 0 -97 -25
-101 -38 -8 -61 62 -36 109 16 28 49 24 61 -8z"/>
<path d="M4652 1668 l3 -83 43 -3 c25 -2 42 1 42 7 0 6 -16 11 -35 11 l-35 0
0 75 c0 45 -4 75 -10 75 -7 0 -10 -30 -8 -82z"/>
<path d="M4800 1677 c0 -80 9 -97 50 -97 41 0 50 17 50 97 0 95 -18 95 -22 1
-3 -70 -4 -73 -28 -73 -24 0 -25 3 -28 73 -4 94 -22 94 -22 -1z"/>
<path d="M4970 1741 c0 -5 10 -11 23 -13 20 -3 22 -8 23 -73 2 -88 19 -83 20
5 1 58 3 65 23 68 43 7 19 22 -34 22 -30 0 -55 -4 -55 -9z"/>
<path d="M5150 1665 c0 -50 4 -85 10 -85 6 0 10 35 10 85 0 50 -4 85 -10 85
-6 0 -10 -35 -10 -85z"/>
<path d="M5249 1723 c-14 -36 -6 -123 12 -134 23 -14 66 -10 80 8 8 9 14 39
14 68 0 63 -16 85 -61 85 -28 0 -36 -5 -45 -27z m77 -4 c4 -7 7 -31 7 -54 0
-23 -3 -47 -7 -54 -11 -18 -44 -13 -56 8 -23 44 -5 111 30 111 10 0 22 -5 26
-11z"/>
<path d="M5430 1666 c0 -105 18 -115 22 -13 l3 72 26 -70 c16 -43 32 -71 42
-73 15 -3 17 8 17 82 0 55 -4 86 -11 86 -7 0 -10 -23 -7 -65 1 -36 0 -65 -3
-65 -3 0 -17 28 -30 62 -15 38 -31 64 -42 66 -15 3 -17 -7 -17 -82z"/>
</g>
</svg>
